<svg xmlns="http://www.w3.org/2000/svg" viewBox="0 0 256 256">
  <defs>
    <linearGradient id="cloud" x1="0" x2="1" y1="0" y2="1">
      <stop offset="0%" stop-color="#fffafb"/>
      <stop offset="100%" stop-color="#dbe8ff"/>
    </linearGradient>
  </defs>
  <path d="M128 34v58" stroke="#8a759d" stroke-width="10" stroke-linecap="round"/>
  <path d="M76 142c0-25 18-45 43-45 8-16 24-26 43-26 28 0 50 22 50 50 0 4 0 8-1 11 14 5 24 19 24 34 0 21-17 38-38 38H78c-31 0-56-25-56-56 0-22 13-41 32-50 7 15 18 28 22 44z" fill="url(#cloud)"/>
  <circle cx="128" cy="136" r="26" fill="#ff9ccd"/>
  <path d="M128 118l9 19 21 2-16 13 5 21-19-10-19 10 5-21-16-13 21-2z" fill="#fff8d8"/>
</svg>
